<?xml version="1.0" encoding="UTF-8"?>
<svg xmlns="http://www.w3.org/2000/svg" xmlns:xlink="http://www.w3.org/1999/xlink" width="24px" height="24px" viewBox="0 0 24 24" version="1.1">
<g id="surface1">
<path style=" stroke:none;fill-rule:evenodd;fill:rgb(85.09804%,85.09804%,85.09804%);fill-opacity:1;" d="M 5.734375 2.042969 C 6.949219 0.832031 8.953125 1.046875 9.972656 2.410156 L 11.234375 4.09375 C 12.066406 5.203125 11.992188 6.75 11.007812 7.730469 L 10.769531 7.96875 C 10.742188 8.066406 10.738281 8.171875 10.761719 8.273438 C 10.824219 8.679688 11.164062 9.546875 12.59375 10.964844 C 14.019531 12.386719 14.890625 12.726562 15.304688 12.789062 C 15.410156 12.808594 15.515625 12.808594 15.617188 12.78125 L 16.027344 12.375 C 16.902344 11.503906 18.246094 11.339844 19.332031 11.929688 L 21.242188 12.96875 C 22.878906 13.859375 23.289062 16.082031 21.949219 17.414062 L 20.53125 18.828125 C 20.082031 19.273438 19.480469 19.644531 18.746094 19.710938 C 16.9375 19.882812 12.71875 19.664062 8.285156 15.257812 C 4.148438 11.144531 3.355469 7.554688 3.253906 5.789062 C 3.203125 4.894531 3.625 4.136719 4.164062 3.605469 Z M 8.773438 3.308594 C 8.265625 2.632812 7.320312 2.578125 6.789062 3.105469 L 5.21875 4.667969 C 4.890625 4.996094 4.730469 5.355469 4.753906 5.703125 C 4.832031 7.109375 5.472656 10.34375 9.34375 14.195312 C 13.40625 18.234375 17.15625 18.355469 18.605469 18.21875 C 18.902344 18.191406 19.195312 18.039062 19.472656 17.765625 L 20.890625 16.351562 C 21.46875 15.777344 21.34375 14.730469 20.523438 14.289062 L 18.613281 13.25 C 18.085938 12.960938 17.46875 13.054688 17.085938 13.4375 L 16.628906 13.890625 L 16.101562 13.359375 C 16.628906 13.890625 16.628906 13.890625 16.628906 13.890625 L 16.628906 13.894531 L 16.625 13.898438 L 16.617188 13.902344 L 16.601562 13.917969 C 16.558594 13.957031 16.515625 13.992188 16.464844 14.023438 C 16.386719 14.078125 16.28125 14.136719 16.148438 14.183594 C 15.878906 14.285156 15.519531 14.339844 15.078125 14.269531 C 14.210938 14.136719 13.0625 13.546875 11.535156 12.03125 C 10.007812 10.511719 9.410156 9.371094 9.277344 8.503906 C 9.210938 8.0625 9.265625 7.703125 9.367188 7.433594 C 9.421875 7.28125 9.503906 7.140625 9.605469 7.011719 L 9.636719 6.976562 L 9.660156 6.953125 L 9.949219 6.667969 C 10.378906 6.238281 10.4375 5.53125 10.035156 4.992188 Z M 8.773438 3.308594 "/>
</g>
</svg>
