<svg width="0" height="0" class="hidden">
    <symbol xmlns="http://www.w3.org/2000/svg" fill="none" viewBox="0 0 64 21" id="google-logo">
        <g clip-path="url(#clip0_94_2667)">
            <path d="M62.0057 12.8339L63.7812 14.0176C63.205 14.8663 61.8267 16.3226 59.4439 16.3226C56.4849 16.3226 54.2812 14.0332 54.2812 11.1208C54.2812 8.02169 56.5082 5.91919 59.1947 5.91919C61.8967 5.91919 63.2205 8.06831 63.6489 9.22856L63.8825 9.82044L56.921 12.7016C57.4505 13.7451 58.276 14.2746 59.4439 14.2746C60.612 14.2746 61.4217 13.6983 62.0057 12.8339ZM56.5472 10.9574L61.196 9.02619C60.939 8.37994 60.176 7.92056 59.2647 7.92056C58.1046 7.92056 56.4927 8.94844 56.5472 10.9574Z"
                  fill="#FF302F"></path>
            <path d="M50.9258 0.616455H53.1683V15.8477H50.9258V0.616455Z" fill="#20B15A"></path>
            <path d="M47.3925 6.32425H49.5572V15.5751C49.5572 19.414 47.2912 20.9947 44.6125 20.9947C42.0896 20.9947 40.5712 19.2972 40.0027 17.919L41.9883 17.0935C42.3465 17.9422 43.2108 18.9469 44.6125 18.9469C46.3333 18.9469 47.3925 17.88 47.3925 15.8866V15.1391H47.3146C46.8006 15.762 45.8195 16.3226 44.5736 16.3226C41.9727 16.3226 39.5898 14.0566 39.5898 11.1366C39.5898 8.20087 41.9727 5.91162 44.5736 5.91162C45.8117 5.91162 46.8006 6.4645 47.3146 7.07187H47.3925V6.32425ZM47.5481 11.1366C47.5481 9.29887 46.3256 7.9595 44.7682 7.9595C43.1952 7.9595 41.8715 9.29887 41.8715 11.1366C41.8715 12.9509 43.1952 14.2669 44.7682 14.2669C46.3257 14.2747 47.5482 12.9509 47.5482 11.1366"
                  fill="#3686F7"></path>
            <path d="M27.2782 11.0976C27.2782 14.0956 24.9422 16.2992 22.0766 16.2992C19.2111 16.2992 16.875 14.0878 16.875 11.0976C16.875 8.08406 19.2111 5.88818 22.0766 5.88818C24.9422 5.88818 27.2782 8.08406 27.2782 11.0976ZM25.0045 11.0976C25.0045 9.22881 23.6495 7.94381 22.0766 7.94381C20.5037 7.94381 19.1487 9.22881 19.1487 11.0976C19.1487 12.9508 20.5037 14.2513 22.0766 14.2513C23.6496 14.2513 25.0045 12.9508 25.0045 11.0976Z"
                  fill="#FF302F"></path>
            <path d="M38.6376 11.1208C38.6376 14.1188 36.3015 16.3224 33.436 16.3224C30.5704 16.3224 28.2344 14.1187 28.2344 11.1208C28.2344 8.10731 30.5704 5.91919 33.436 5.91919C36.3015 5.91919 38.6376 8.09956 38.6376 11.1208ZM36.356 11.1208C36.356 9.25206 35.0011 7.96706 33.4281 7.96706C31.8551 7.96706 30.5002 9.25206 30.5002 11.1208C30.5002 12.9741 31.8552 14.2746 33.4281 14.2746C35.0089 14.2746 36.356 12.9663 36.356 11.1208Z"
                  fill="#FFBA40"></path>
            <path d="M8.3245 14.041C5.06175 14.041 2.50775 11.409 2.50775 8.14622C2.50775 4.8836 5.06175 2.2516 8.3245 2.2516C10.0844 2.2516 11.3691 2.9446 12.3191 3.83235L13.8844 2.26723C12.5606 0.997977 10.793 0.0322266 8.3245 0.0322266C3.85487 0.0323516 0.09375 3.67673 0.09375 8.14622C0.09375 12.6157 3.85487 16.2602 8.3245 16.2602C10.7385 16.2602 12.5606 15.466 13.9856 13.9865C15.4495 12.5225 15.9011 10.4667 15.9011 8.80035C15.9011 8.2786 15.8389 7.74135 15.7687 7.34423H8.3245V9.50898H13.6274C13.4716 10.864 13.0434 11.7906 12.4126 12.4212C11.6495 13.1922 10.4426 14.041 8.3245 14.041Z"
                  fill="#3686F7"></path>
        </g>
        <defs>
            <clipPath id="clip0_94_2667">
                <rect width="64" height="21" fill="white"></rect>
            </clipPath>
        </defs>
    </symbol>
    <symbol fill="none" xmlns="http://www.w3.org/2000/svg" viewBox="0 0 21 30" id="google-maps">
        <g clip-path="url(#clip0_566_1104)">
            <path d="M5.76953 22.2237C6.63712 23.3294 7.42679 24.4941 8.13283 25.7094C8.73561 26.8523 8.98689 27.6273 9.42741 29.0045C9.69757 29.7653 9.94174 29.9924 10.4667 29.9924C11.0387 29.9924 11.2983 29.6061 11.4988 29.0086C11.9152 27.7081 12.2419 26.7156 12.7574 25.7777C13.7689 23.9671 15.0258 22.3581 16.2608 20.8118C16.5951 20.3741 18.7568 17.8244 19.7299 15.8126C19.7299 15.8126 20.926 13.6027 20.926 10.5163C20.926 7.62927 19.7464 5.62695 19.7464 5.62695L16.3504 6.53644L14.288 11.9684L13.7777 12.7174L13.6757 12.8531L13.54 13.023L13.3018 13.2943L12.9614 13.6346L11.1249 15.1308L6.53335 17.7819L5.76953 22.2237Z"
                  fill="#34A853"></path>
            <path d="M1.03125 15.4406C2.15188 18.0002 4.31286 20.2503 5.77493 22.2249L13.5407 13.0259C13.5407 13.0259 12.4466 14.4568 10.462 14.4568C8.25144 14.4568 6.46558 12.6915 6.46558 10.4656C6.46558 8.93924 7.38389 7.89062 7.38389 7.89062L2.11231 9.30316L1.03125 15.4406Z"
                  fill="#FBBC04"></path>
            <path d="M13.6273 0.473145C16.2065 1.30472 18.414 3.05053 19.7493 5.62489L13.5429 13.0209C13.5429 13.0209 14.4612 11.9533 14.4612 10.4364C14.4612 8.1587 12.5433 6.45712 10.4713 6.45712C8.512 6.45712 7.38672 7.8856 7.38672 7.8856V3.2262L13.6273 0.473145Z"
                  fill="#4285F4"></path>
            <path d="M2.45312 3.74101C3.99359 1.89793 6.70422 0 10.4412 0C12.2543 0 13.6202 0.475995 13.6202 0.475995L7.38024 7.88959H2.95912L2.45312 3.74101Z"
                  fill="#1A73E8"></path>
            <path d="M1.03095 15.4407C1.03095 15.4407 0 13.4218 0 10.497C0 7.73268 1.0746 5.31633 2.45354 3.74097L7.38417 7.8902L1.03095 15.4407Z"
                  fill="#EA4335"></path>
        </g>
        <defs>
            <clipPath id="clip0_566_1104">
                <rect width="20.9264" height="30" fill="white"></rect>
            </clipPath>
        </defs>
    </symbol>
    <symbol fill="none" xmlns="http://www.w3.org/2000/svg" viewBox="0 0 30 30" id="popup-close">
        <g id="Icon">
            <g id="Vector">
                <path d="M7.29199 7.29166L22.7087 22.7083L7.29199 7.29166ZM22.7087 7.29166L7.29199 22.7083L22.7087 7.29166Z"
                      fill="#030200"></path>
                <path d="M7.29199 7.29166L22.7087 22.7083M22.7087 7.29166L7.29199 22.7083" stroke="#030200"
                      stroke-width="0.8" stroke-miterlimit="10" stroke-linecap="round" stroke-linejoin="round"></path>
            </g>
        </g>
    </symbol>
</svg>
